<?xml version="1.0" encoding="utf-8"?>
<svg viewBox="0 0 576 512" xmlns="http://www.w3.org/2000/svg" xmlns:xlink="http://www.w3.org/1999/xlink">
    <style>:root>svg{display:none}:root>svg:target{display:block}</style>
    <svg viewBox="0 0 448 512" id="bars" xmlns="http://www.w3.org/2000/svg">
        <path d="M16 132h416c8.837 0 16-7.163 16-16V76c0-8.837-7.163-16-16-16H16C7.163 60 0 67.163 0 76v40c0 8.837 7.163 16 16 16zm0 160h416c8.837 0 16-7.163 16-16v-40c0-8.837-7.163-16-16-16H16c-8.837 0-16 7.163-16 16v40c0 8.837 7.163 16 16 16zm0 160h416c8.837 0 16-7.163 16-16v-40c0-8.837-7.163-16-16-16H16c-8.837 0-16 7.163-16 16v40c0 8.837 7.163 16 16 16z"/>
    </svg>
    <svg viewBox="0 0 512 512" id="envelope" xmlns="http://www.w3.org/2000/svg">
        <path d="M502.3 190.8c3.9-3.1 9.7-.2 9.7 4.7V400c0 26.5-21.5 48-48 48H48c-26.5 0-48-21.5-48-48V195.6c0-5 5.7-7.8 9.7-4.7 22.4 17.4 52.1 39.5 154.1 113.6 21.1 15.4 56.7 47.8 92.2 47.6 35.7.3 72-32.8 92.3-47.6 102-74.1 131.6-96.3 154-113.7zM256 320c23.2.4 56.6-29.2 73.4-41.4 132.7-96.3 142.8-104.7 173.4-128.7 5.8-4.5 9.2-11.5 9.2-18.9v-19c0-26.5-21.5-48-48-48H48C21.5 64 0 85.5 0 112v19c0 7.4 3.4 14.3 9.2 18.9 30.6 23.9 40.7 32.4 173.4 128.7 16.8 12.2 50.2 41.8 73.4 41.4z"/>
    </svg>
    <svg viewBox="0 0 512 512" id="facebook" xmlns="http://www.w3.org/2000/svg">
        <path d="M504 256C504 119 393 8 256 8S8 119 8 256c0 123.78 90.69 226.38 209.25 245V327.69h-63V256h63v-54.64c0-62.15 37-96.48 93.67-96.48 27.14 0 55.52 4.84 55.52 4.84v61h-31.28c-30.8 0-40.41 19.12-40.41 38.73V256h68.78l-11 71.69h-57.78V501C413.31 482.38 504 379.78 504 256z"/>
    </svg>
    <svg viewBox="0 0 512 139" preserveAspectRatio="xMidYMid" id="github" xmlns="http://www.w3.org/2000/svg">
        <path d="M98.696 59.312h-43.06c-1.111 0-2.013.903-2.013 2.014v21.053c0 1.111.902 2.015 2.012 2.015h16.799v26.157s-3.772 1.286-14.2 1.286c-12.303 0-29.49-4.496-29.49-42.288 0-37.8 17.897-42.773 34.698-42.773 14.543 0 20.809 2.56 24.795 3.794 1.253.384 2.412-.863 2.412-1.975l4.803-20.342c0-.52-.176-1.146-.769-1.571C93.064 5.527 83.187 0 58.233 0 29.488 0 0 12.23 0 71.023c0 58.795 33.76 67.556 62.21 67.556 23.555 0 37.844-10.066 37.844-10.066.59-.325.653-1.148.653-1.526V61.326c0-1.11-.9-2.014-2.01-2.014zm221.8-51.953c0-1.12-.888-2.024-1.999-2.024h-24.246a2.016 2.016 0 00-2.008 2.024l.006 46.856h-37.792V7.36c0-1.12-.892-2.024-2.001-2.024H228.21a2.014 2.014 0 00-2.003 2.024v126.872c0 1.12.9 2.03 2.003 2.03h24.245c1.109 0 2-.91 2-2.03V79.964h37.793l-.066 54.267c0 1.12.9 2.03 2.008 2.03h24.304c1.11 0 1.998-.91 2-2.03V7.36zM144.37 24.322c0-8.73-7-15.786-15.635-15.786-8.627 0-15.632 7.055-15.632 15.786 0 8.72 7.005 15.795 15.632 15.795 8.635 0 15.635-7.075 15.635-15.795zm-1.924 83.212V48.97c0-1.112-.897-2.021-2.006-2.021h-24.169c-1.109 0-2.1 1.144-2.1 2.256v83.905c0 2.466 1.536 3.199 3.525 3.199h21.775c2.39 0 2.975-1.173 2.975-3.239v-25.536zM413.162 46.95h-24.06c-1.104 0-2.002.909-2.002 2.028v62.21s-6.112 4.472-14.788 4.472c-8.675 0-10.977-3.937-10.977-12.431v-54.25c0-1.12-.897-2.03-2.001-2.03h-24.419c-1.102 0-2.005.91-2.005 2.03v58.358c0 25.23 14.063 31.403 33.408 31.403 15.87 0 28.665-8.767 28.665-8.767s.61 4.62.885 5.168c.276.547.994 1.098 1.77 1.098l15.535-.068c1.102 0 2.005-.911 2.005-2.025l-.008-85.168c0-1.119-.9-2.028-2.008-2.028zm55.435 68.758c-8.345-.254-14.006-4.041-14.006-4.041V71.488s5.585-3.423 12.436-4.035c8.664-.776 17.013 1.841 17.013 22.51 0 21.795-3.768 26.096-15.443 25.744zm9.49-71.483c-13.665 0-22.96 6.097-22.96 6.097V7.359a2.01 2.01 0 00-2-2.024h-24.315a2.013 2.013 0 00-2.004 2.024v126.872c0 1.12.898 2.03 2.007 2.03h16.87c.76 0 1.335-.39 1.76-1.077.419-.682 1.024-5.85 1.024-5.85s9.942 9.422 28.763 9.422c22.096 0 34.768-11.208 34.768-50.315s-20.238-44.217-33.913-44.217zM212.229 46.73h-18.187l-.028-24.027c0-.909-.468-1.364-1.52-1.364H167.71c-.964 0-1.481.424-1.481 1.35v24.83s-12.42 2.998-13.26 3.24a2.013 2.013 0 00-1.452 1.934v15.603c0 1.122.896 2.027 2.005 2.027h12.707v37.536c0 27.88 19.556 30.619 32.753 30.619 6.03 0 13.243-1.937 14.434-2.376.72-.265 1.138-1.01 1.138-1.82l.02-17.164c0-1.119-.945-2.025-2.01-2.025-1.06 0-3.77.431-6.562.431-8.933 0-11.96-4.154-11.96-9.53l-.001-35.67h18.188a2.014 2.014 0 002.006-2.028V48.753c0-1.12-.897-2.022-2.006-2.022z"/>
    </svg>
    <svg style="isolation:isolate" viewBox="0 0 350.098 280.029" id="logo" xmlns="http://www.w3.org/2000/svg">
        <path d="M245.117 0q21.729 0 40.772 8.301t33.325 22.583q14.282 14.282 22.583 33.325 8.301 19.043 8.301 40.771v175.049H0V104.98q0-21.728 8.301-40.771t22.583-33.325Q45.166 16.602 64.209 8.301 83.252 0 104.98 0q9.766 0 20.02 2.686 10.254 2.685 19.775 7.568 9.522 4.883 17.334 11.719 7.813 6.836 12.94 15.136 4.639-8.545 12.573-15.38 7.935-6.836 17.456-11.719 9.522-4.883 19.898-7.447Q235.352 0 245.117 0zm-34.912 209.961h69.824V104.98q0-7.324-2.685-13.671-2.686-6.348-7.447-11.109-4.76-4.761-11.108-7.446-6.348-2.686-13.672-2.686-7.324 0-13.672 2.686-6.347 2.685-11.108 7.446-4.761 4.761-7.446 11.109-2.686 6.347-2.686 13.671v104.981zm-140.137 0h70.069V104.98q0-7.324-2.686-13.671-2.685-6.348-7.446-11.109-4.761-4.761-11.231-7.446-6.469-2.686-13.794-2.686-7.324 0-13.671 2.686Q84.961 75.439 80.2 80.2q-4.761 4.761-7.446 11.109-2.686 6.347-2.686 13.671v104.981zm2.139 43.535q0 1.738-.664 3.262-.664 1.523-1.807 2.666-1.142 1.142-2.666 1.806-1.523.665-3.261.665H49.805v-28.008h14.004q1.738 0 3.261.664 1.524.664 2.666 1.806 1.143 1.143 1.807 2.666.664 1.524.664 3.262 0 .781-.215 1.602-.215.82-.605 1.582-.391.761-.938 1.386-.547.625-1.211 1.036.684.371 1.231 1.005.547.635.937 1.397.391.762.596 1.592.205.83.205 1.611zm-16.797-2.793v5.586h8.399q.586 0 1.093-.215.508-.215.889-.595.381-.381.596-.889.215-.508.215-1.094 0-.586-.215-1.094-.215-.507-.596-.888t-.889-.596q-.507-.215-1.093-.215H55.41zm0-11.211v5.606h8.399q.586 0 1.093-.215.508-.215.889-.596t.596-.898q.215-.518.215-1.104 0-.586-.215-1.094-.215-.507-.596-.888t-.889-.596q-.507-.215-1.093-.215H55.41zm26.309 11.211H92.93v-5.605q0-1.153-.44-2.178-.439-1.025-1.201-1.787t-1.787-1.201q-1.025-.44-2.178-.44-1.152 0-2.178.44-1.025.439-1.787 1.201-.761.762-1.201 1.787-.439 1.025-.439 2.178v5.605zm16.816-5.605v16.797H92.93v-5.606H81.719v5.606h-5.586v-16.797q0-2.325.879-4.366.879-2.041 2.392-3.564 1.514-1.523 3.555-2.402 2.041-.879 4.365-.879 2.324 0 4.365.879 2.041.879 3.565 2.402 1.523 1.523 2.402 3.564.879 2.041.879 4.366zm16.074-5.606h-5.605v11.211h5.605q1.153 0 2.168-.439 1.016-.44 1.778-1.201.761-.762 1.201-1.788.439-1.025.439-2.177 0-1.153-.439-2.178-.44-1.025-1.201-1.787-.762-.762-1.778-1.201-1.015-.44-2.168-.44zm-5.605 16.797v5.606h-5.606v-28.008h11.211q1.543 0 2.969.4 1.426.401 2.666 1.133t2.266 1.758q1.025 1.025 1.758 2.275.732 1.25 1.132 2.676.401 1.426.401 2.969 0 1.445-.362 2.812-.361 1.367-1.035 2.598-.674 1.23-1.65 2.265-.977 1.036-2.188 1.797l3.106 7.325h-5.957l-2.442-5.645-6.269.039zm42.871-2.793q0 1.738-.664 3.262-.664 1.523-1.807 2.666-1.142 1.142-2.666 1.806-1.523.665-3.261.665h-14.004v-28.008h14.004q1.738 0 3.261.664 1.524.664 2.666 1.806 1.143 1.143 1.807 2.666.664 1.524.664 3.262 0 .781-.215 1.602-.215.82-.605 1.582-.391.761-.938 1.386-.547.625-1.211 1.036.684.371 1.231 1.005.547.635.937 1.397.391.762.596 1.592.205.83.205 1.611zm-16.797-2.793v5.586h8.399q.586 0 1.093-.215.508-.215.889-.595.381-.381.596-.889.215-.508.215-1.094 0-.586-.215-1.094-.215-.507-.596-.888t-.889-.596q-.507-.215-1.093-.215h-8.399zm0-11.211v5.606h8.399q.586 0 1.093-.215.508-.215.889-.596t.596-.898q.215-.518.215-1.104 0-.586-.215-1.094-.215-.507-.596-.888t-.889-.596q-.507-.215-1.093-.215h-8.399zm26.309 11.211h11.211v-5.605q0-1.153-.44-2.178-.439-1.025-1.201-1.787t-1.787-1.201q-1.025-.44-2.178-.44-1.152 0-2.178.44-1.025.439-1.787 1.201-.761.762-1.201 1.787-.439 1.025-.439 2.178v5.605zm16.816-5.605v16.797h-5.605v-5.606h-11.211v5.606h-5.586v-16.797q0-2.325.879-4.366.879-2.041 2.392-3.564 1.514-1.523 3.555-2.402 2.041-.879 4.365-.879 2.324 0 4.365.879 2.041.879 3.565 2.402 1.523 1.523 2.402 3.564.879 2.041.879 4.366zm16.074-5.606h-5.605v11.211h5.605q1.153 0 2.168-.439 1.016-.44 1.778-1.201.761-.762 1.201-1.788.439-1.025.439-2.177 0-1.153-.439-2.178-.44-1.025-1.201-1.787-.762-.762-1.778-1.201-1.015-.44-2.168-.44zm-5.605 16.797v5.606h-5.606v-28.008h11.211q1.543 0 2.969.4 1.426.401 2.666 1.133t2.266 1.758q1.025 1.025 1.758 2.275.732 1.25 1.132 2.676.401 1.426.401 2.969 0 1.445-.362 2.812-.361 1.367-1.035 2.598-.674 1.23-1.65 2.265-.977 1.036-2.188 1.797l3.106 7.325h-5.957l-2.442-5.645-6.269.039zm26.074-22.402v28.008h-5.605v-28.008h5.605zm24.59 20.254l2.969 4.882q-1.953 1.68-4.375 2.579-2.422.898-5.02.898-1.992 0-3.838-.518-1.845-.517-3.457-1.464-1.611-.948-2.939-2.276-1.328-1.328-2.276-2.939-.947-1.612-1.464-3.457-.518-1.846-.518-3.838t.518-3.848q.517-1.855 1.464-3.467.948-1.611 2.276-2.939 1.328-1.328 2.939-2.275 1.612-.948 3.457-1.465 1.846-.518 3.838-.518 2.598 0 5.02.889 2.422.888 4.375 2.588l-2.969 4.882q-1.231-1.328-2.91-2.041-1.68-.712-3.516-.712-1.855 0-3.476.703t-2.832 1.904q-1.211 1.201-1.914 2.832-.704 1.631-.704 3.467t.704 3.447q.703 1.611 1.914 2.822 1.211 1.211 2.832 1.914 1.621.704 3.476.704 1.836 0 3.516-.713 1.679-.713 2.91-2.041zm28.301-20.254v16.816q0 2.324-.879 4.365-.879 2.041-2.403 3.555-1.523 1.514-3.564 2.393-2.041.879-4.365.879-2.324 0-4.365-.879-2.041-.879-3.555-2.393-1.514-1.514-2.393-3.555-.879-2.041-.879-4.365v-16.816h5.586v16.816q0 1.152.44 2.168.439 1.016 1.201 1.777.762.762 1.787 1.202 1.025.439 2.178.439 1.152 0 2.178-.439 1.025-.44 1.787-1.202.761-.761 1.201-1.777.439-1.016.439-2.168v-16.816h5.606zm32.656 8.008v20h-5.586v-20q0-.586-.225-1.094-.224-.508-.605-.889t-.889-.596q-.508-.214-1.093-.214-.586 0-1.094.214-.508.215-.889.596t-.596.889q-.214.508-.214 1.094v20h-5.606v-20q0-.586-.215-1.094-.215-.508-.595-.889-.381-.381-.889-.596-.508-.214-1.094-.214-.586 0-1.094.214-.507.215-.888.596t-.596.889q-.215.508-.215 1.094v20h-5.605v-20q0-1.739.654-3.272.654-1.533 1.797-2.676 1.142-1.142 2.676-1.797 1.533-.654 3.271-.654 1.563 0 3.008.557 1.445.556 2.598 1.611 1.152-1.055 2.587-1.611 1.436-.557 2.999-.557 1.738 0 3.271.654 1.533.655 2.676 1.797 1.142 1.143 1.797 2.676.654 1.533.654 3.272z"
              fill-rule="evenodd" fill="{{ include.color | defaults: rgb(0,0,0}}"/>
    </svg>
    <svg style="isolation:isolate" viewBox="0 0 300 34.737" id="logo-text" xmlns="http://www.w3.org/2000/svg">
        <path d="M26.83 23.953q0 2.082-.795 3.907-.795 1.824-2.164 3.193-1.368 1.368-3.193 2.163-1.824.796-3.906.796H0V.468h16.772q2.082 0 3.906.795 1.825.795 3.193 2.164 1.369 1.368 2.164 3.193.795 1.824.795 3.906 0 .936-.257 1.918-.257.983-.725 1.895-.468.912-1.123 1.661t-1.45 1.24q.819.444 1.474 1.204.655.761 1.122 1.673.468.912.714 1.906.245.995.245 1.93zM6.713 20.608v6.69h10.059q.702 0 1.31-.257.608-.257 1.064-.714.456-.456.714-1.064.257-.608.257-1.31 0-.702-.257-1.31-.258-.608-.714-1.064-.456-.456-1.064-.714-.608-.257-1.31-.257H6.713zm0-13.427v6.714h10.059q.702 0 1.31-.258.608-.257 1.064-.713.456-.456.714-1.076.257-.62.257-1.322 0-.701-.257-1.31-.258-.608-.714-1.064-.456-.456-1.064-.713-.608-.258-1.31-.258H6.713zm31.509 13.427h13.427v-6.713q0-1.38-.526-2.608-.527-1.229-1.439-2.141-.912-.912-2.14-1.438-1.228-.527-2.608-.527-1.38 0-2.609.527-1.228.526-2.14 1.438-.912.912-1.438 2.141-.527 1.228-.527 2.608v6.713zm20.141-6.713v20.117h-6.714v-6.714H38.222v6.714h-6.69V13.895q0-2.784 1.053-5.228 1.052-2.445 2.865-4.269 1.813-1.825 4.258-2.878Q42.152.468 44.936.468q2.783 0 5.228 1.052 2.444 1.053 4.269 2.878 1.824 1.824 2.877 4.269 1.053 2.444 1.053 5.228zm19.251-6.714h-6.713v13.427h6.713q1.38 0 2.597-.526 1.216-.526 2.128-1.439.912-.912 1.439-2.14.526-1.228.526-2.608 0-1.38-.526-2.608-.527-1.229-1.439-2.141-.912-.912-2.128-1.438-1.217-.527-2.597-.527zm-6.713 20.117v6.714h-6.714V.468h13.427q1.848 0 3.556.479 1.707.48 3.193 1.357 1.485.877 2.713 2.105t2.105 2.726q.877 1.497 1.357 3.204.48 1.708.48 3.556 0 1.731-.433 3.368-.433 1.638-1.24 3.111-.807 1.474-1.977 2.714-1.169 1.239-2.619 2.152l3.719 8.772h-7.135l-2.924-6.761-7.508.047zm51.345-3.345q0 2.082-.796 3.907-.795 1.824-2.163 3.193-1.369 1.368-3.193 2.163-1.825.796-3.907.796H95.415V.468h16.772q2.082 0 3.907.795 1.824.795 3.193 2.164 1.368 1.368 2.163 3.193.796 1.824.796 3.906 0 .936-.258 1.918-.257.983-.725 1.895-.468.912-1.123 1.661t-1.45 1.24q.819.444 1.474 1.204.655.761 1.123 1.673.467.912.713 1.906.246.995.246 1.93zm-20.117-3.345v6.69h10.058q.702 0 1.31-.257.608-.257 1.064-.714.457-.456.714-1.064.257-.608.257-1.31 0-.702-.257-1.31-.257-.608-.714-1.064-.456-.456-1.064-.714-.608-.257-1.31-.257h-10.058zm0-13.427v6.714h10.058q.702 0 1.31-.258.608-.257 1.064-.713.457-.456.714-1.076.257-.62.257-1.322 0-.701-.257-1.31-.257-.608-.714-1.064-.456-.456-1.064-.713-.608-.258-1.31-.258h-10.058zm31.508 13.427h13.427v-6.713q0-1.38-.526-2.608-.526-1.229-1.439-2.141-.912-.912-2.14-1.438-1.228-.527-2.608-.527-1.38 0-2.608.527-1.228.526-2.141 1.438-.912.912-1.438 2.141-.527 1.228-.527 2.608v6.713zm20.141-6.713v20.117h-6.714v-6.714h-13.427v6.714h-6.69V13.895q0-2.784 1.053-5.228 1.053-2.445 2.865-4.269 1.813-1.825 4.258-2.878 2.444-1.052 5.228-1.052t5.228 1.052q2.444 1.053 4.269 2.878 1.825 1.824 2.877 4.269 1.053 2.444 1.053 5.228zm19.251-6.714h-6.713v13.427h6.713q1.38 0 2.597-.526 1.216-.526 2.128-1.439.913-.912 1.439-2.14.526-1.228.526-2.608 0-1.38-.526-2.608-.526-1.229-1.439-2.141-.912-.912-2.128-1.438-1.217-.527-2.597-.527zm-6.713 20.117v6.714h-6.714V.468h13.427q1.848 0 3.556.479 1.707.48 3.193 1.357 1.485.877 2.713 2.105t2.105 2.726q.878 1.497 1.357 3.204.48 1.708.48 3.556 0 1.731-.433 3.368-.433 1.638-1.24 3.111-.807 1.474-1.976 2.714-1.17 1.239-2.62 2.152l3.719 8.772h-7.134l-2.924-6.761-7.509.047zM197.544.468v33.544h-6.714V.468h6.714zm29.45 24.257l3.556 5.848q-2.339 2.012-5.24 3.088-2.901 1.076-6.012 1.076-2.386 0-4.596-.62-2.211-.62-4.141-1.754-1.929-1.135-3.52-2.726-1.591-1.59-2.725-3.52-1.135-1.93-1.755-4.14-.619-2.211-.619-4.597 0-2.386.619-4.608.62-2.222 1.755-4.152 1.134-1.93 2.725-3.521 1.591-1.59 3.52-2.725 1.93-1.134 4.141-1.754 2.21-.62 4.596-.62 3.111 0 6.012 1.064 2.901 1.065 5.24 3.1l-3.556 5.848q-1.474-1.591-3.485-2.445-2.012-.854-4.211-.854-2.222 0-4.163.843-1.942.842-3.392 2.28-1.451 1.439-2.293 3.392-.842 1.953-.842 4.152t.842 4.129q.842 1.93 2.293 3.38 1.45 1.45 3.392 2.292 1.941.842 4.163.842 2.199 0 4.211-.853 2.011-.854 3.485-2.445zM260.889.468v20.14q0 2.784-1.053 5.228-1.052 2.445-2.877 4.258-1.824 1.812-4.269 2.865-2.444 1.053-5.228 1.053t-5.228-1.053q-2.445-1.053-4.257-2.865-1.813-1.813-2.866-4.258-1.053-2.444-1.053-5.228V.468h6.691v20.14q0 1.38.526 2.597.526 1.216 1.438 2.128.913.913 2.141 1.439t2.608.526q1.38 0 2.608-.526 1.228-.526 2.141-1.439.912-.912 1.438-2.128.526-1.217.526-2.597V.468h6.714zM300 10.058v23.954h-6.69V10.058q0-.701-.269-1.309-.269-.609-.725-1.065-.456-.456-1.065-.713-.608-.258-1.309-.258-.702 0-1.31.258-.609.257-1.065.713-.456.456-.713 1.065-.258.608-.258 1.309v23.954h-6.713V10.058q0-.701-.257-1.309-.258-.609-.714-1.065-.456-.456-1.064-.713-.608-.258-1.31-.258-.702 0-1.31.258-.608.257-1.064.713-.456.456-.714 1.065-.257.608-.257 1.309v23.954h-6.713V10.058q0-2.081.783-3.918.784-1.836 2.152-3.204 1.369-1.369 3.205-2.152Q274.456 0 276.538 0q1.871 0 3.602.667 1.731.666 3.111 1.929 1.381-1.263 3.1-1.929Q288.07 0 289.942 0q2.081 0 3.918.784 1.836.783 3.204 2.152 1.369 1.368 2.152 3.204.784 1.837.784 3.918z"/>
    </svg>
    <svg viewBox="0 0 448 512" id="plus-square" xmlns="http://www.w3.org/2000/svg">
        <path d="M400 64c8.8 0 16 7.2 16 16v352c0 8.8-7.2 16-16 16H48c-8.8 0-16-7.2-16-16V80c0-8.8 7.2-16 16-16h352m0-32H48C21.5 32 0 53.5 0 80v352c0 26.5 21.5 48 48 48h352c26.5 0 48-21.5 48-48V80c0-26.5-21.5-48-48-48zm-60 206h-98v-98c0-6.6-5.4-12-12-12h-12c-6.6 0-12 5.4-12 12v98h-98c-6.6 0-12 5.4-12 12v12c0 6.6 5.4 12 12 12h98v98c0 6.6 5.4 12 12 12h12c6.6 0 12-5.4 12-12v-98h98c6.6 0 12-5.4 12-12v-12c0-6.6-5.4-12-12-12z"/>
    </svg>
    <svg viewBox="0 0 512 512" id="twitter" xmlns="http://www.w3.org/2000/svg">
        <path d="M459.37 151.716c.325 4.548.325 9.097.325 13.645 0 138.72-105.583 298.558-298.558 298.558-59.452 0-114.68-17.219-161.137-47.106 8.447.974 16.568 1.299 25.34 1.299 49.055 0 94.213-16.568 130.274-44.832-46.132-.975-84.792-31.188-98.112-72.772 6.498.974 12.995 1.624 19.818 1.624 9.421 0 18.843-1.3 27.614-3.573-48.081-9.747-84.143-51.98-84.143-102.985v-1.299c13.969 7.797 30.214 12.67 47.431 13.319-28.264-18.843-46.781-51.005-46.781-87.391 0-19.492 5.197-37.36 14.294-52.954 51.655 63.675 129.3 105.258 216.365 109.807-1.624-7.797-2.599-15.918-2.599-24.04 0-57.828 46.782-104.934 104.934-104.934 30.213 0 57.502 12.67 76.67 33.137 23.715-4.548 46.456-13.32 66.599-25.34-7.798 24.366-24.366 44.833-46.132 57.827 21.117-2.273 41.584-8.122 60.426-16.243-14.292 20.791-32.161 39.308-52.628 54.253z"/>
    </svg>
    <svg viewBox="0 0 576 512" id="vk" xmlns="http://www.w3.org/2000/svg">
        <path d="M545 117.7c3.7-12.5 0-21.7-17.8-21.7h-58.9c-15 0-21.9 7.9-25.6 16.7 0 0-30 73.1-72.4 120.5-13.7 13.7-20 18.1-27.5 18.1-3.7 0-9.4-4.4-9.4-16.9V117.7c0-15-4.2-21.7-16.6-21.7h-92.6c-9.4 0-15 7-15 13.5 0 14.2 21.2 17.5 23.4 57.5v86.8c0 19-3.4 22.5-10.9 22.5-20 0-68.6-73.4-97.4-157.4-5.8-16.3-11.5-22.9-26.6-22.9H38.8c-16.8 0-20.2 7.9-20.2 16.7 0 15.6 20 93.1 93.1 195.5C160.4 378.1 229 416 291.4 416c37.5 0 42.1-8.4 42.1-22.9 0-66.8-3.4-73.1 15.4-73.1 8.7 0 23.7 4.4 58.7 38.1 40 40 46.6 57.9 69 57.9h58.9c16.8 0 25.3-8.4 20.4-25-11.2-34.9-86.9-106.7-90.3-111.5-8.7-11.2-6.2-16.2 0-26.2.1-.1 72-101.3 79.4-135.6z"/>
    </svg>
</svg>