<?xml version="1.0" standalone="no"?>
<!DOCTYPE svg PUBLIC "-//W3C//DTD SVG 20010904//EN"
 "http://www.w3.org/TR/2001/REC-SVG-20010904/DTD/svg10.dtd">
<svg version="1.0" xmlns="http://www.w3.org/2000/svg"
 width="192.000000pt" height="192.000000pt" viewBox="0 0 192.000000 192.000000"
 preserveAspectRatio="xMidYMid meet">
<metadata>
Created by potrace 1.11, written by Peter Selinger 2001-2013
</metadata>
<g transform="translate(0.000000,192.000000) scale(0.100000,-0.100000)"
fill="#000000" stroke="none">
<path d="M0 960 l0 -960 960 0 960 0 0 960 0 960 -960 0 -960 0 0 -960z m718
660 l172 0 0 -24 c0 -27 -8 -31 -87 -41 l-51 -7 -7 -111 c-3 -62 -5 -177 -3
-257 l3 -145 45 -2 45 -3 200 252 c110 138 201 257 203 263 2 8 -17 14 -54 18
-64 7 -79 16 -70 44 6 19 15 20 189 15 100 -2 186 -8 192 -13 20 -19 -11 -44
-65 -52 -47 -8 -59 -16 -124 -80 -40 -40 -136 -149 -213 -244 l-142 -172 221
-293 c121 -161 239 -312 261 -335 36 -38 46 -42 103 -49 62 -6 64 -7 64 -35
l0 -29 -250 0 -250 0 0 29 c0 28 2 29 60 36 33 4 62 11 65 15 6 10 -58 104
-245 362 l-135 187 -52 0 -53 1 0 -279 0 -279 23 -6 c12 -3 36 -6 54 -6 47 0
63 -9 63 -36 l0 -24 -225 0 -225 0 0 25 c0 18 6 26 23 29 12 2 42 8 67 13 l45
8 3 583 2 582 -27 0 c-16 0 -45 3 -65 6 -34 6 -38 10 -38 37 l0 30 53 -7 c28
-3 130 -6 225 -6z"/>
</g>
</svg>
