<?xml version="1.0" standalone="no"?>
<!DOCTYPE svg PUBLIC "-//W3C//DTD SVG 20010904//EN"
 "http://www.w3.org/TR/2001/REC-SVG-20010904/DTD/svg10.dtd">
<svg version="1.0" xmlns="http://www.w3.org/2000/svg"
 width="350.000000pt" height="350.000000pt" viewBox="0 0 350.000000 350.000000"
 preserveAspectRatio="xMidYMid meet">
<metadata>
Created by potrace 1.11, written by Peter Selinger 2001-2013
</metadata>
<g transform="translate(0.000000,350.000000) scale(0.100000,-0.100000)"
fill="#000000" stroke="none">
<path d="M839 3128 c-369 -74 -684 -363 -794 -728 -43 -143 -43 -165 -44
-1128 l-2 -922 1751 0 1751 0 -4 963 c-3 950 -3 963 -25 1037 -101 351 -323
600 -654 733 -163 65 -385 82 -563 43 -88 -20 -192 -66 -295 -131 -46 -29
-164 -142 -193 -185 l-17 -25 -27 35 c-46 58 -131 136 -189 175 -94 62 -239
121 -349 141 -84 15 -250 11 -346 -8z m352 -710 c109 -50 183 -143 206 -258 2
-12 5 -851 3 -1052 l0 -58 -350 0 -351 0 3 568 3 567 27 57 c45 96 139 175
235 197 67 15 165 6 224 -21z m1413 -7 c75 -37 128 -91 165 -170 l26 -56 3
-567 3 -568 -350 0 -349 0 0 546 c0 607 1 610 65 703 98 141 282 189 437 112z
m-1908 -1627 c22 -21 25 -31 20 -62 -8 -46 -8 -58 0 -102 4 -27 1 -41 -16 -60
-20 -23 -30 -25 -111 -28 l-89 -4 0 141 0 141 85 0 c79 0 88 -2 111 -26z m227
14 c51 -27 60 -52 62 -175 l1 -93 -28 0 c-24 0 -28 4 -28 29 0 28 -1 29 -52
26 -69 -3 -66 -1 -60 -30 4 -22 1 -25 -25 -25 l-30 0 0 98 c-1 53 4 106 9 117
27 56 99 81 151 53z m277 -3 c61 -32 74 -108 29 -168 -20 -28 -21 -31 -5 -63
l16 -34 -30 0 c-23 0 -33 7 -45 30 -12 23 -22 30 -45 30 -27 0 -30 -3 -30 -30
0 -25 -4 -30 -25 -30 -14 0 -26 3 -26 8 -1 4 -2 67 -3 140 l-2 132 69 0 c41 0
80 -6 97 -15z m288 -5 c12 -12 23 -24 23 -28 7 -44 5 -63 -7 -73 -10 -8 -11
-15 -3 -25 5 -7 12 -27 14 -44 3 -25 -2 -39 -25 -62 -28 -28 -32 -29 -112 -26
l-83 3 0 138 -1 137 86 0 c73 0 90 -3 108 -20z m258 -14 c29 -29 34 -41 35
-82 1 -53 1 -144 0 -157 -1 -5 -13 -7 -28 -5 -22 2 -28 8 -28 28 0 23 -3 25
-53 26 -51 0 -55 -2 -55 -38 0 -13 -8 -18 -28 -18 -32 0 -31 -4 -31 105 0 36
1 74 1 86 1 12 16 36 35 55 28 28 42 34 76 34 34 0 48 -6 76 -34z m270 1 c28
-26 36 -40 36 -67 0 -44 -17 -89 -37 -96 -13 -5 -13 -10 0 -41 19 -45 20 -43
-14 -43 -22 0 -31 6 -41 30 -10 24 -19 30 -41 30 -26 0 -29 -4 -29 -30 0 -27
-3 -30 -30 -30 l-30 0 0 140 0 140 75 0 c71 0 77 -2 111 -33z m132 -107 l0
-140 -28 0 -29 0 1 140 0 140 28 0 28 0 0 -140z m245 129 c12 -7 23 -13 25
-14 1 -1 -2 -14 -9 -27 -10 -24 -13 -25 -39 -11 -56 28 -116 -4 -126 -68 -11
-67 62 -117 125 -86 27 14 30 13 39 -8 16 -35 -1 -48 -65 -52 -46 -3 -65 0
-91 17 -36 22 -73 92 -67 125 2 11 4 28 4 38 1 9 19 35 41 57 36 36 45 40 91
40 28 0 60 -5 72 -11z m117 -51 c-3 -107 -1 -126 16 -142 20 -21 53 -20 76 1
15 13 18 32 18 110 l0 93 30 0 29 0 -2 -98 c-3 -106 -14 -136 -62 -168 -38
-25 -93 -13 -131 29 -30 33 -31 36 -32 135 l-1 102 30 0 30 0 -1 -62z m441 56
c39 -7 49 -42 49 -164 l0 -110 -25 0 c-27 0 -28 6 -25 146 1 64 -13 90 -44 78
-13 -5 -16 -24 -16 -115 0 -108 0 -109 -24 -109 -31 0 -33 7 -31 118 1 96 -8
121 -40 108 -12 -4 -15 -26 -15 -116 l0 -110 -29 0 -28 0 0 108 c0 107 11 154
39 165 16 6 155 7 189 1z"/>
<path d="M563 746 c-4 -6 -8 -19 -8 -28 -1 -15 7 -18 45 -18 51 0 83 21 63 41
-15 15 -92 19 -100 5z"/>
<path d="M575 641 c-30 -9 -26 -45 5 -51 55 -12 100 9 82 37 -9 13 -62 22 -87
14z"/>
<path d="M841 742 c-21 -18 -24 -29 -22 -74 1 -26 3 -27 56 -27 l55 1 0 37 c0
44 -8 57 -42 70 -21 8 -31 7 -47 -7z"/>
<path d="M1093 745 c-2 -7 -3 -32 -1 -56 3 -41 5 -44 33 -45 61 -3 95 45 62
90 -16 21 -86 29 -94 11z"/>
<path d="M1363 753 c-7 -3 -13 -16 -13 -29 0 -24 3 -25 53 -22 45 3 52 6 55
26 2 12 0 22 -5 23 -58 5 -80 5 -90 2z"/>
<path d="M1367 642 c-20 -4 -24 -51 -4 -53 35 -4 82 2 91 11 27 27 -28 53 -87
42z"/>
<path d="M1639 741 c-15 -12 -23 -30 -24 -58 l-2 -41 54 1 c29 0 53 3 54 6 1
3 2 21 3 39 3 52 -47 84 -85 53z"/>
<path d="M1888 737 c-2 -12 -1 -39 1 -61 l3 -38 40 5 c50 7 61 18 61 57 0 40
-9 48 -60 53 -37 5 -42 3 -45 -16z"/>
</g>
</svg>
